<svg xmlns="http://www.w3.org/2000/svg" xmlns:xlink="http://www.w3.org/1999/xlink" width="500" zoomAndPan="magnify" viewBox="0 0 375 374.999991" height="500" preserveAspectRatio="xMidYMid meet" version="1.0"><defs><g/></defs><g fill="#ffffff" fill-opacity="1"><g transform="translate(41.257293, 161.156591)"><g><path d="M 13.15625 -8.609375 C 13.8125 -9.242188 14.09375 -9.398438 14 -9.078125 C 13.90625 -8.765625 13.539062 -8.191406 12.90625 -7.359375 C 12.28125 -6.535156 11.492188 -5.640625 10.546875 -4.671875 C 9.609375 -3.703125 8.613281 -2.863281 7.5625 -2.15625 C 6.507812 -1.445312 5.507812 -1.0625 4.5625 -1 C 3.40625 -1 2.476562 -1.34375 1.78125 -2.03125 C 1.082031 -2.71875 0.582031 -3.625 0.28125 -4.75 C -0.0078125 -5.882812 -0.132812 -7.109375 -0.09375 -8.421875 C -0.03125 -9.890625 0.0234375 -11.359375 0.078125 -12.828125 C 0.0976562 -13.566406 0.117188 -14.289062 0.140625 -15 C 0.203125 -16.175781 0.242188 -17.359375 0.265625 -18.546875 C 0.285156 -18.910156 0.222656 -19.21875 0.078125 -19.46875 C -0.0546875 -19.71875 -0.3125 -19.859375 -0.6875 -19.890625 C -1.101562 -19.910156 -1.625 -19.921875 -2.25 -19.921875 C -2.800781 -19.921875 -3.273438 -19.921875 -3.671875 -19.921875 C -4.222656 -19.984375 -4.585938 -20.128906 -4.765625 -20.359375 C -4.953125 -20.585938 -4.804688 -20.820312 -4.328125 -21.0625 C -3.992188 -21.195312 -3.59375 -21.269531 -3.125 -21.28125 C -2.65625 -21.289062 -2.191406 -21.285156 -1.734375 -21.265625 C -1.453125 -21.242188 -1.203125 -21.234375 -0.984375 -21.234375 C -0.273438 -21.234375 0.148438 -21.34375 0.296875 -21.5625 C 0.453125 -21.78125 0.550781 -22.21875 0.59375 -22.875 C 0.632812 -23.570312 0.671875 -24.269531 0.703125 -24.96875 C 0.722656 -25.34375 0.75 -25.710938 0.78125 -26.078125 C 0.78125 -26.628906 0.925781 -27.125 1.21875 -27.5625 C 1.53125 -27.988281 1.925781 -28.148438 2.40625 -28.046875 C 2.820312 -27.941406 3.050781 -27.679688 3.09375 -27.265625 C 3.132812 -26.566406 3.15625 -25.867188 3.15625 -25.171875 C 3.175781 -24.773438 3.175781 -24.378906 3.15625 -23.984375 C 3.15625 -23.566406 3.164062 -23.128906 3.1875 -22.671875 C 3.164062 -22.054688 3.238281 -21.664062 3.40625 -21.5 C 3.570312 -21.34375 3.984375 -21.265625 4.640625 -21.265625 C 5.710938 -21.265625 6.773438 -21.265625 7.828125 -21.265625 C 8.304688 -21.265625 9.726562 -21.296875 12.09375 -21.359375 C 14.457031 -21.421875 15.726562 -21.226562 15.90625 -20.78125 C 16.09375 -20.34375 14.597656 -20.085938 11.421875 -20.015625 C 9.503906 -19.898438 8.019531 -19.84375 6.96875 -19.84375 C 6.257812 -19.875 5.625 -19.890625 5.0625 -19.890625 C 4.125 -19.890625 3.539062 -19.722656 3.3125 -19.390625 C 3.09375 -19.066406 3 -18.40625 3.03125 -17.40625 C 3 -16.5625 2.957031 -15.535156 2.90625 -14.328125 C 2.75 -11.859375 2.671875 -9.335938 2.671875 -6.765625 C 2.734375 -5.003906 3.050781 -3.859375 3.625 -3.328125 C 4.195312 -2.804688 4.941406 -2.707031 5.859375 -3.03125 C 6.773438 -3.363281 7.765625 -3.953125 8.828125 -4.796875 C 9.898438 -5.640625 10.960938 -6.539062 12.015625 -7.5 C 12.242188 -7.800781 12.519531 -8.082031 12.84375 -8.34375 C 12.945312 -8.4375 13.050781 -8.523438 13.15625 -8.609375 Z M 13.15625 -8.609375 "/></g></g></g><g fill="#ffffff" fill-opacity="1"><g transform="translate(55.344707, 161.156591)"><g><path d="M 23.375 -9.796875 C 23.445312 -9.773438 23.53125 -9.722656 23.625 -9.640625 C 23.71875 -9.566406 23.773438 -9.472656 23.796875 -9.359375 C 23.828125 -9.253906 23.765625 -9.160156 23.609375 -9.078125 C 22.628906 -8.554688 21.441406 -8.34375 20.046875 -8.4375 C 18.660156 -8.53125 17.5625 -8.984375 16.75 -9.796875 C 16.695312 -9.378906 16.628906 -8.972656 16.546875 -8.578125 C 16.421875 -7.703125 16.289062 -6.863281 16.15625 -6.0625 C 15.976562 -5.132812 15.660156 -4.253906 15.203125 -3.421875 C 14.609375 -2.441406 13.835938 -1.789062 12.890625 -1.46875 C 11.941406 -1.15625 11.046875 -1.109375 10.203125 -1.328125 C 9.316406 -1.503906 8.597656 -1.941406 8.046875 -2.640625 C 7.804688 -2.941406 7.578125 -3.25 7.359375 -3.5625 C 7.265625 -3.695312 7.175781 -3.828125 7.09375 -3.953125 C 6.851562 -3.929688 6.664062 -3.859375 6.53125 -3.734375 C 6.40625 -3.617188 6.289062 -3.5 6.1875 -3.375 C 6.082031 -3.238281 5.96875 -3.132812 5.84375 -3.0625 C 4.914062 -2.40625 4 -2.1875 3.09375 -2.40625 C 2.1875 -2.625 1.492188 -3.238281 1.015625 -4.25 C 0.816406 -4.707031 0.664062 -5.191406 0.5625 -5.703125 C 0.320312 -6.679688 0.164062 -7.648438 0.09375 -8.609375 C 0.03125 -9.578125 0.0078125 -10.566406 0.03125 -11.578125 C 0.09375 -12.179688 0.328125 -12.570312 0.734375 -12.75 C 1.140625 -12.925781 1.546875 -12.90625 1.953125 -12.6875 C 2.359375 -12.46875 2.585938 -12.039062 2.640625 -11.40625 C 2.671875 -10.988281 2.6875 -10.570312 2.6875 -10.15625 C 2.65625 -8.625 2.820312 -7.125 3.1875 -5.65625 C 3.289062 -5.3125 3.410156 -4.984375 3.546875 -4.671875 C 3.628906 -4.515625 3.742188 -4.429688 3.890625 -4.421875 C 4.035156 -4.410156 4.160156 -4.484375 4.265625 -4.640625 C 4.660156 -5.191406 4.957031 -5.785156 5.15625 -6.421875 C 5.351562 -7.066406 5.523438 -7.734375 5.671875 -8.421875 C 5.671875 -8.503906 5.6875 -8.582031 5.71875 -8.65625 C 5.757812 -8.9375 5.820312 -9.238281 5.90625 -9.5625 C 5.957031 -9.957031 6.035156 -10.351562 6.140625 -10.75 C 6.335938 -11.40625 6.851562 -11.679688 7.6875 -11.578125 C 8.382812 -11.523438 8.753906 -11.171875 8.796875 -10.515625 C 8.796875 -8.984375 8.960938 -7.484375 9.296875 -6.015625 C 9.398438 -5.492188 9.550781 -4.976562 9.75 -4.46875 C 9.945312 -3.96875 10.242188 -3.507812 10.640625 -3.09375 C 11.054688 -2.707031 11.492188 -2.707031 11.953125 -3.09375 C 12.609375 -3.726562 13.035156 -4.460938 13.234375 -5.296875 C 13.765625 -6.960938 14.003906 -8.671875 13.953125 -10.421875 C 13.953125 -10.554688 13.953125 -10.6875 13.953125 -10.8125 C 13.890625 -11.5625 13.878906 -12.285156 13.921875 -12.984375 C 13.941406 -13.992188 14.476562 -14.378906 15.53125 -14.140625 C 15.769531 -14.085938 15.988281 -14.003906 16.1875 -13.890625 C 16.382812 -13.785156 16.53125 -13.59375 16.625 -13.3125 C 17.445312 -11.519531 18.300781 -10.359375 19.1875 -9.828125 C 20.082031 -9.304688 20.894531 -9.109375 21.625 -9.234375 C 22.363281 -9.367188 22.894531 -9.535156 23.21875 -9.734375 C 23.289062 -9.753906 23.34375 -9.773438 23.375 -9.796875 Z M 23.375 -9.796875 "/></g></g></g><g fill="#ffffff" fill-opacity="1"><g transform="translate(78.351303, 161.156591)"><g><path d="M 17.265625 -8.65625 C 17.523438 -8.8125 17.78125 -8.929688 18.03125 -9.015625 C 18.289062 -9.097656 18.457031 -9.085938 18.53125 -8.984375 C 18.601562 -8.890625 18.5 -8.675781 18.21875 -8.34375 C 17.320312 -7.320312 16.25 -6.382812 15 -5.53125 C 13.75 -4.675781 12.46875 -3.957031 11.15625 -3.375 C 10.132812 -2.90625 9.050781 -2.53125 7.90625 -2.25 C 6.769531 -1.976562 5.640625 -1.921875 4.515625 -2.078125 C 3.398438 -2.234375 2.382812 -2.726562 1.46875 -3.5625 C 0.0703125 -4.851562 -0.503906 -6.429688 -0.265625 -8.296875 C -0.0664062 -9.773438 0.503906 -11.03125 1.453125 -12.0625 C 2.410156 -13.09375 3.609375 -13.796875 5.046875 -14.171875 C 6.253906 -14.429688 7.460938 -14.460938 8.671875 -14.265625 C 9.222656 -14.179688 9.722656 -13.992188 10.171875 -13.703125 C 10.585938 -13.378906 10.816406 -13.003906 10.859375 -12.578125 C 10.898438 -12.148438 10.738281 -11.738281 10.375 -11.34375 C 9.601562 -10.65625 8.71875 -10.25 7.71875 -10.125 C 6.59375 -9.925781 5.460938 -9.804688 4.328125 -9.765625 C 3.785156 -9.765625 3.398438 -9.648438 3.171875 -9.421875 C 2.953125 -9.191406 2.828125 -8.804688 2.796875 -8.265625 C 2.617188 -6.765625 3.097656 -5.546875 4.234375 -4.609375 C 4.929688 -4.046875 5.785156 -3.804688 6.796875 -3.890625 C 7.804688 -3.972656 8.878906 -4.242188 10.015625 -4.703125 C 11.148438 -5.160156 12.257812 -5.695312 13.34375 -6.3125 C 14.425781 -6.925781 15.40625 -7.507812 16.28125 -8.0625 C 16.65625 -8.300781 16.984375 -8.5 17.265625 -8.65625 Z M 4.8125 -11.84375 C 4.8125 -11.820312 4.796875 -11.8125 4.765625 -11.8125 C 4.710938 -11.757812 4.644531 -11.695312 4.5625 -11.625 C 4.488281 -11.5625 4.421875 -11.5 4.359375 -11.4375 C 4.296875 -11.375 4.265625 -11.328125 4.265625 -11.296875 C 4.285156 -11.210938 4.5 -11.191406 4.90625 -11.234375 C 5.3125 -11.273438 5.757812 -11.347656 6.25 -11.453125 C 6.738281 -11.554688 7.144531 -11.691406 7.46875 -11.859375 C 7.800781 -12.035156 7.90625 -12.242188 7.78125 -12.484375 C 7.71875 -12.554688 7.640625 -12.617188 7.546875 -12.671875 C 7.460938 -12.722656 7.363281 -12.765625 7.25 -12.796875 C 6.769531 -12.796875 6.332031 -12.703125 5.9375 -12.515625 C 5.550781 -12.328125 5.175781 -12.101562 4.8125 -11.84375 Z M 4.8125 -11.84375 "/></g></g></g><g fill="#ffffff" fill-opacity="1"><g transform="translate(96.862489, 161.156591)"><g><path d="M 14.8125 -6.890625 C 15.726562 -8.347656 16.273438 -9.273438 16.453125 -9.671875 C 16.628906 -10.066406 16.765625 -10.046875 16.859375 -9.609375 C 16.960938 -9.179688 16.664062 -8.210938 15.96875 -6.703125 C 15.28125 -5.191406 14.421875 -4.023438 13.390625 -3.203125 C 12.367188 -2.390625 11.410156 -2.09375 10.515625 -2.3125 C 9.628906 -2.53125 8.992188 -3.148438 8.609375 -4.171875 C 8.234375 -5.191406 8.125 -6.476562 8.28125 -8.03125 C 8.28125 -8.050781 8.289062 -8.113281 8.3125 -8.21875 C 8.332031 -8.476562 8.375 -8.863281 8.4375 -9.375 C 8.507812 -9.894531 8.5625 -10.429688 8.59375 -10.984375 C 8.625 -11.535156 8.601562 -11.988281 8.53125 -12.34375 C 8.46875 -12.695312 8.304688 -12.820312 8.046875 -12.71875 C 7.410156 -12.375 6.789062 -11.695312 6.1875 -10.6875 C 5.582031 -9.675781 5.035156 -8.617188 4.546875 -7.515625 C 4.054688 -6.410156 3.710938 -5.519531 3.515625 -4.84375 C 3.429688 -4.625 3.351562 -4.394531 3.28125 -4.15625 C 3.164062 -3.84375 3.046875 -3.53125 2.921875 -3.21875 C 2.578125 -2.320312 1.972656 -1.976562 1.109375 -2.1875 C 0.628906 -2.289062 0.347656 -2.582031 0.265625 -3.0625 C 0.242188 -3.4375 0.234375 -3.789062 0.234375 -4.125 C 0.234375 -4.332031 0.222656 -4.53125 0.203125 -4.71875 C 0.148438 -7.363281 0.0820312 -10.03125 0 -12.71875 C 0.0195312 -13.03125 0.15625 -13.242188 0.40625 -13.359375 C 0.65625 -13.484375 0.957031 -13.546875 1.3125 -13.546875 C 1.570312 -13.546875 1.816406 -13.472656 2.046875 -13.328125 C 2.285156 -13.179688 2.429688 -12.882812 2.484375 -12.4375 C 2.515625 -12.28125 2.53125 -12.125 2.53125 -11.96875 C 2.550781 -11.882812 2.5625 -11.804688 2.5625 -11.734375 C 2.613281 -11.359375 2.640625 -11.039062 2.640625 -10.78125 C 2.640625 -10.382812 2.664062 -10.113281 2.71875 -9.96875 C 2.769531 -9.832031 2.878906 -9.84375 3.046875 -10 C 3.222656 -10.15625 3.507812 -10.523438 3.90625 -11.109375 C 4.582031 -12.160156 5.425781 -13.050781 6.4375 -13.78125 C 7.351562 -14.4375 8.359375 -14.707031 9.453125 -14.59375 C 10.398438 -14.5 11.035156 -14.003906 11.359375 -13.109375 C 11.484375 -12.660156 11.546875 -12.203125 11.546875 -11.734375 C 11.546875 -11.273438 11.519531 -10.816406 11.46875 -10.359375 C 11.4375 -9.878906 11.398438 -9.390625 11.359375 -8.890625 C 11.316406 -8.734375 11.285156 -8.578125 11.265625 -8.421875 C 11.109375 -6.710938 11.160156 -5.566406 11.421875 -4.984375 C 11.691406 -4.410156 12.09375 -4.222656 12.625 -4.421875 C 13.164062 -4.617188 13.894531 -5.441406 14.8125 -6.890625 Z M 14.8125 -6.890625 "/></g></g></g><g fill="#ffffff" fill-opacity="1"><g transform="translate(113.797592, 161.156591)"><g><path d="M 13.15625 -8.609375 C 13.8125 -9.242188 14.09375 -9.398438 14 -9.078125 C 13.90625 -8.765625 13.539062 -8.191406 12.90625 -7.359375 C 12.28125 -6.535156 11.492188 -5.640625 10.546875 -4.671875 C 9.609375 -3.703125 8.613281 -2.863281 7.5625 -2.15625 C 6.507812 -1.445312 5.507812 -1.0625 4.5625 -1 C 3.40625 -1 2.476562 -1.34375 1.78125 -2.03125 C 1.082031 -2.71875 0.582031 -3.625 0.28125 -4.75 C -0.0078125 -5.882812 -0.132812 -7.109375 -0.09375 -8.421875 C -0.03125 -9.890625 0.0234375 -11.359375 0.078125 -12.828125 C 0.0976562 -13.566406 0.117188 -14.289062 0.140625 -15 C 0.203125 -16.175781 0.242188 -17.359375 0.265625 -18.546875 C 0.285156 -18.910156 0.222656 -19.21875 0.078125 -19.46875 C -0.0546875 -19.71875 -0.3125 -19.859375 -0.6875 -19.890625 C -1.101562 -19.910156 -1.625 -19.921875 -2.25 -19.921875 C -2.800781 -19.921875 -3.273438 -19.921875 -3.671875 -19.921875 C -4.222656 -19.984375 -4.585938 -20.128906 -4.765625 -20.359375 C -4.953125 -20.585938 -4.804688 -20.820312 -4.328125 -21.0625 C -3.992188 -21.195312 -3.59375 -21.269531 -3.125 -21.28125 C -2.65625 -21.289062 -2.191406 -21.285156 -1.734375 -21.265625 C -1.453125 -21.242188 -1.203125 -21.234375 -0.984375 -21.234375 C -0.273438 -21.234375 0.148438 -21.34375 0.296875 -21.5625 C 0.453125 -21.78125 0.550781 -22.21875 0.59375 -22.875 C 0.632812 -23.570312 0.671875 -24.269531 0.703125 -24.96875 C 0.722656 -25.34375 0.75 -25.710938 0.78125 -26.078125 C 0.78125 -26.628906 0.925781 -27.125 1.21875 -27.5625 C 1.53125 -27.988281 1.925781 -28.148438 2.40625 -28.046875 C 2.820312 -27.941406 3.050781 -27.679688 3.09375 -27.265625 C 3.132812 -26.566406 3.15625 -25.867188 3.15625 -25.171875 C 3.175781 -24.773438 3.175781 -24.378906 3.15625 -23.984375 C 3.15625 -23.566406 3.164062 -23.128906 3.1875 -22.671875 C 3.164062 -22.054688 3.238281 -21.664062 3.40625 -21.5 C 3.570312 -21.34375 3.984375 -21.265625 4.640625 -21.265625 C 5.710938 -21.265625 6.773438 -21.265625 7.828125 -21.265625 C 8.304688 -21.265625 9.726562 -21.296875 12.09375 -21.359375 C 14.457031 -21.421875 15.726562 -21.226562 15.90625 -20.78125 C 16.09375 -20.34375 14.597656 -20.085938 11.421875 -20.015625 C 9.503906 -19.898438 8.019531 -19.84375 6.96875 -19.84375 C 6.257812 -19.875 5.625 -19.890625 5.0625 -19.890625 C 4.125 -19.890625 3.539062 -19.722656 3.3125 -19.390625 C 3.09375 -19.066406 3 -18.40625 3.03125 -17.40625 C 3 -16.5625 2.957031 -15.535156 2.90625 -14.328125 C 2.75 -11.859375 2.671875 -9.335938 2.671875 -6.765625 C 2.734375 -5.003906 3.050781 -3.859375 3.625 -3.328125 C 4.195312 -2.804688 4.941406 -2.707031 5.859375 -3.03125 C 6.773438 -3.363281 7.765625 -3.953125 8.828125 -4.796875 C 9.898438 -5.640625 10.960938 -6.539062 12.015625 -7.5 C 12.242188 -7.800781 12.519531 -8.082031 12.84375 -8.34375 C 12.945312 -8.4375 13.050781 -8.523438 13.15625 -8.609375 Z M 13.15625 -8.609375 "/></g></g></g><g fill="#ffffff" fill-opacity="1"><g transform="translate(127.885005, 161.156591)"><g><path d="M 20.21875 -9.046875 C 20.644531 -9.023438 20.71875 -8.816406 20.4375 -8.421875 C 20.164062 -8.023438 19.703125 -7.523438 19.046875 -6.921875 C 18.390625 -6.316406 17.675781 -5.6875 16.90625 -5.03125 C 15.882812 -4.15625 15.054688 -3.40625 14.421875 -2.78125 C 13.710938 -2.175781 13.140625 -1.34375 12.703125 -0.28125 C 12.273438 0.78125 12.0625 1.757812 12.0625 2.65625 C 12.0625 3.132812 12.0625 3.703125 12.0625 4.359375 C 12.082031 5.691406 12.078125 7.296875 12.046875 9.171875 C 12.023438 11.054688 11.921875 13 11.734375 15 C 11.554688 17.007812 11.222656 18.894531 10.734375 20.65625 C 10.253906 22.425781 9.566406 23.867188 8.671875 24.984375 C 7.773438 26.097656 6.632812 26.707031 5.25 26.8125 C 2.582031 26.882812 0.753906 25.78125 -0.234375 23.5 C -0.992188 21.582031 -1.25 19.613281 -1 17.59375 C -0.75 15.570312 -0.1875 13.597656 0.6875 11.671875 C 1.5625 9.753906 2.550781 7.988281 3.65625 6.375 C 4.769531 4.757812 5.8125 3.40625 6.78125 2.3125 C 7.75 1.226562 8.445312 0.5 8.875 0.125 C 9.050781 -0.46875 9.148438 -1.160156 9.171875 -1.953125 C 9.203125 -2.742188 9.207031 -3.507812 9.1875 -4.25 C 9.15625 -4.488281 9.140625 -4.695312 9.140625 -4.875 C 8.609375 -4.0625 8.0625 -3.488281 7.5 -3.15625 C 6.9375 -2.832031 6.375 -2.65625 5.8125 -2.625 C 5.25 -2.59375 4.710938 -2.609375 4.203125 -2.671875 C 4.160156 -2.671875 4.113281 -2.671875 4.0625 -2.671875 C 2.90625 -2.828125 1.992188 -3.367188 1.328125 -4.296875 C 0.660156 -5.234375 0.226562 -6.296875 0.03125 -7.484375 C -0.164062 -8.679688 -0.117188 -9.753906 0.171875 -10.703125 C 0.472656 -11.648438 1.019531 -12.203125 1.8125 -12.359375 C 2.132812 -12.441406 2.488281 -12.484375 2.875 -12.484375 C 3.269531 -12.484375 3.597656 -12.425781 3.859375 -12.3125 C 4.128906 -12.207031 4.222656 -12.015625 4.140625 -11.734375 C 3.898438 -10.753906 3.757812 -9.691406 3.71875 -8.546875 C 3.6875 -7.410156 3.785156 -6.421875 4.015625 -5.578125 C 4.253906 -4.734375 4.675781 -4.28125 5.28125 -4.21875 C 5.882812 -4.15625 6.6875 -4.703125 7.6875 -5.859375 C 8.164062 -6.460938 8.492188 -7.082031 8.671875 -7.71875 C 8.847656 -8.363281 8.988281 -9.054688 9.09375 -9.796875 C 9.125 -10.054688 9.164062 -10.320312 9.21875 -10.59375 C 9.25 -10.851562 9.285156 -11.113281 9.328125 -11.375 C 9.367188 -11.71875 9.410156 -12.054688 9.453125 -12.390625 C 9.585938 -12.941406 9.894531 -13.320312 10.375 -13.53125 C 10.863281 -13.75 11.390625 -13.726562 11.953125 -13.46875 C 12.234375 -13.300781 12.398438 -13.0625 12.453125 -12.75 C 12.515625 -12.144531 12.546875 -11.546875 12.546875 -10.953125 C 12.503906 -8.816406 12.484375 -6.195312 12.484375 -3.09375 C 12.523438 -3.125 12.789062 -3.347656 13.28125 -3.765625 C 13.90625 -4.347656 14.703125 -5.046875 15.671875 -5.859375 C 16.648438 -6.671875 17.570312 -7.398438 18.4375 -8.046875 C 19.300781 -8.691406 19.894531 -9.023438 20.21875 -9.046875 Z M 8.546875 9.15625 C 8.546875 8.863281 8.5625 8.566406 8.59375 8.265625 C 8.625 7.128906 8.660156 5.976562 8.703125 4.8125 C 8.703125 4.769531 8.679688 4.707031 8.640625 4.625 C 8.609375 4.550781 8.566406 4.492188 8.515625 4.453125 C 8.378906 4.359375 8.265625 4.34375 8.171875 4.40625 C 8.085938 4.476562 8.003906 4.550781 7.921875 4.625 C 6.816406 6.039062 5.773438 7.644531 4.796875 9.4375 C 3.828125 11.238281 3.066406 13.113281 2.515625 15.0625 C 1.972656 17.007812 1.75 18.914062 1.84375 20.78125 C 1.925781 21.9375 2.296875 23 2.953125 23.96875 C 3.742188 25.050781 4.429688 25.441406 5.015625 25.140625 C 5.609375 24.835938 6.109375 24.085938 6.515625 22.890625 C 6.921875 21.703125 7.253906 20.296875 7.515625 18.671875 C 7.785156 17.054688 7.988281 15.472656 8.125 13.921875 C 8.269531 12.378906 8.382812 11.09375 8.46875 10.0625 C 8.5 9.71875 8.523438 9.414062 8.546875 9.15625 Z M 8.546875 9.15625 "/></g></g></g><g fill="#ffffff" fill-opacity="1"><g transform="translate(148.008094, 161.156591)"><g><path d="M 8.703125 -7.796875 L 7.25 -7.828125 C 5.75 -7.878906 4.109375 -8 2.328125 -8.1875 C 2.304688 -8.1875 2.273438 -8.210938 2.234375 -8.265625 C 2.160156 -8.265625 2.109375 -8.285156 2.078125 -8.328125 C 2.054688 -8.367188 2.03125 -8.453125 2 -8.578125 C 1.976562 -9.128906 2.097656 -9.414062 2.359375 -9.4375 C 3.703125 -9.632812 5.0625 -9.742188 6.4375 -9.765625 L 7.25 -9.796875 L 12.765625 -9.796875 C 13.054688 -9.796875 13.359375 -9.773438 13.671875 -9.734375 C 13.910156 -9.671875 14.03125 -9.363281 14.03125 -8.8125 C 14.03125 -8.257812 13.910156 -7.957031 13.671875 -7.90625 C 13.597656 -7.875 13.492188 -7.859375 13.359375 -7.859375 L 12.546875 -7.859375 C 11.328125 -7.816406 10.046875 -7.796875 8.703125 -7.796875 Z M 8.703125 -7.796875 "/></g></g></g><g fill="#ffffff" fill-opacity="1"><g transform="translate(165.176027, 161.156591)"><g><path d="M 13.15625 -8.609375 C 13.8125 -9.242188 14.09375 -9.398438 14 -9.078125 C 13.90625 -8.765625 13.539062 -8.191406 12.90625 -7.359375 C 12.28125 -6.535156 11.492188 -5.640625 10.546875 -4.671875 C 9.609375 -3.703125 8.613281 -2.863281 7.5625 -2.15625 C 6.507812 -1.445312 5.507812 -1.0625 4.5625 -1 C 3.40625 -1 2.476562 -1.34375 1.78125 -2.03125 C 1.082031 -2.71875 0.582031 -3.625 0.28125 -4.75 C -0.0078125 -5.882812 -0.132812 -7.109375 -0.09375 -8.421875 C -0.03125 -9.890625 0.0234375 -11.359375 0.078125 -12.828125 C 0.0976562 -13.566406 0.117188 -14.289062 0.140625 -15 C 0.203125 -16.175781 0.242188 -17.359375 0.265625 -18.546875 C 0.285156 -18.910156 0.222656 -19.21875 0.078125 -19.46875 C -0.0546875 -19.71875 -0.3125 -19.859375 -0.6875 -19.890625 C -1.101562 -19.910156 -1.625 -19.921875 -2.25 -19.921875 C -2.800781 -19.921875 -3.273438 -19.921875 -3.671875 -19.921875 C -4.222656 -19.984375 -4.585938 -20.128906 -4.765625 -20.359375 C -4.953125 -20.585938 -4.804688 -20.820312 -4.328125 -21.0625 C -3.992188 -21.195312 -3.59375 -21.269531 -3.125 -21.28125 C -2.65625 -21.289062 -2.191406 -21.285156 -1.734375 -21.265625 C -1.453125 -21.242188 -1.203125 -21.234375 -0.984375 -21.234375 C -0.273438 -21.234375 0.148438 -21.34375 0.296875 -21.5625 C 0.453125 -21.78125 0.550781 -22.21875 0.59375 -22.875 C 0.632812 -23.570312 0.671875 -24.269531 0.703125 -24.96875 C 0.722656 -25.34375 0.75 -25.710938 0.78125 -26.078125 C 0.78125 -26.628906 0.925781 -27.125 1.21875 -27.5625 C 1.53125 -27.988281 1.925781 -28.148438 2.40625 -28.046875 C 2.820312 -27.941406 3.050781 -27.679688 3.09375 -27.265625 C 3.132812 -26.566406 3.15625 -25.867188 3.15625 -25.171875 C 3.175781 -24.773438 3.175781 -24.378906 3.15625 -23.984375 C 3.15625 -23.566406 3.164062 -23.128906 3.1875 -22.671875 C 3.164062 -22.054688 3.238281 -21.664062 3.40625 -21.5 C 3.570312 -21.34375 3.984375 -21.265625 4.640625 -21.265625 C 5.710938 -21.265625 6.773438 -21.265625 7.828125 -21.265625 C 8.304688 -21.265625 9.726562 -21.296875 12.09375 -21.359375 C 14.457031 -21.421875 15.726562 -21.226562 15.90625 -20.78125 C 16.09375 -20.34375 14.597656 -20.085938 11.421875 -20.015625 C 9.503906 -19.898438 8.019531 -19.84375 6.96875 -19.84375 C 6.257812 -19.875 5.625 -19.890625 5.0625 -19.890625 C 4.125 -19.890625 3.539062 -19.722656 3.3125 -19.390625 C 3.09375 -19.066406 3 -18.40625 3.03125 -17.40625 C 3 -16.5625 2.957031 -15.535156 2.90625 -14.328125 C 2.75 -11.859375 2.671875 -9.335938 2.671875 -6.765625 C 2.734375 -5.003906 3.050781 -3.859375 3.625 -3.328125 C 4.195312 -2.804688 4.941406 -2.707031 5.859375 -3.03125 C 6.773438 -3.363281 7.765625 -3.953125 8.828125 -4.796875 C 9.898438 -5.640625 10.960938 -6.539062 12.015625 -7.5 C 12.242188 -7.800781 12.519531 -8.082031 12.84375 -8.34375 C 12.945312 -8.4375 13.050781 -8.523438 13.15625 -8.609375 Z M 13.15625 -8.609375 "/></g></g></g><g fill="#ffffff" fill-opacity="1"><g transform="translate(179.26344, 161.156591)"><g><path d="M 23.375 -9.796875 C 23.445312 -9.773438 23.53125 -9.722656 23.625 -9.640625 C 23.71875 -9.566406 23.773438 -9.472656 23.796875 -9.359375 C 23.828125 -9.253906 23.765625 -9.160156 23.609375 -9.078125 C 22.628906 -8.554688 21.441406 -8.34375 20.046875 -8.4375 C 18.660156 -8.53125 17.5625 -8.984375 16.75 -9.796875 C 16.695312 -9.378906 16.628906 -8.972656 16.546875 -8.578125 C 16.421875 -7.703125 16.289062 -6.863281 16.15625 -6.0625 C 15.976562 -5.132812 15.660156 -4.253906 15.203125 -3.421875 C 14.609375 -2.441406 13.835938 -1.789062 12.890625 -1.46875 C 11.941406 -1.15625 11.046875 -1.109375 10.203125 -1.328125 C 9.316406 -1.503906 8.597656 -1.941406 8.046875 -2.640625 C 7.804688 -2.941406 7.578125 -3.25 7.359375 -3.5625 C 7.265625 -3.695312 7.175781 -3.828125 7.09375 -3.953125 C 6.851562 -3.929688 6.664062 -3.859375 6.53125 -3.734375 C 6.40625 -3.617188 6.289062 -3.5 6.1875 -3.375 C 6.082031 -3.238281 5.96875 -3.132812 5.84375 -3.0625 C 4.914062 -2.40625 4 -2.1875 3.09375 -2.40625 C 2.1875 -2.625 1.492188 -3.238281 1.015625 -4.25 C 0.816406 -4.707031 0.664062 -5.191406 0.5625 -5.703125 C 0.320312 -6.679688 0.164062 -7.648438 0.09375 -8.609375 C 0.03125 -9.578125 0.0078125 -10.566406 0.03125 -11.578125 C 0.09375 -12.179688 0.328125 -12.570312 0.734375 -12.75 C 1.140625 -12.925781 1.546875 -12.90625 1.953125 -12.6875 C 2.359375 -12.46875 2.585938 -12.039062 2.640625 -11.40625 C 2.671875 -10.988281 2.6875 -10.570312 2.6875 -10.15625 C 2.65625 -8.625 2.820312 -7.125 3.1875 -5.65625 C 3.289062 -5.3125 3.410156 -4.984375 3.546875 -4.671875 C 3.628906 -4.515625 3.742188 -4.429688 3.890625 -4.421875 C 4.035156 -4.410156 4.160156 -4.484375 4.265625 -4.640625 C 4.660156 -5.191406 4.957031 -5.785156 5.15625 -6.421875 C 5.351562 -7.066406 5.523438 -7.734375 5.671875 -8.421875 C 5.671875 -8.503906 5.6875 -8.582031 5.71875 -8.65625 C 5.757812 -8.9375 5.820312 -9.238281 5.90625 -9.5625 C 5.957031 -9.957031 6.035156 -10.351562 6.140625 -10.75 C 6.335938 -11.40625 6.851562 -11.679688 7.6875 -11.578125 C 8.382812 -11.523438 8.753906 -11.171875 8.796875 -10.515625 C 8.796875 -8.984375 8.960938 -7.484375 9.296875 -6.015625 C 9.398438 -5.492188 9.550781 -4.976562 9.75 -4.46875 C 9.945312 -3.96875 10.242188 -3.507812 10.640625 -3.09375 C 11.054688 -2.707031 11.492188 -2.707031 11.953125 -3.09375 C 12.609375 -3.726562 13.035156 -4.460938 13.234375 -5.296875 C 13.765625 -6.960938 14.003906 -8.671875 13.953125 -10.421875 C 13.953125 -10.554688 13.953125 -10.6875 13.953125 -10.8125 C 13.890625 -11.5625 13.878906 -12.285156 13.921875 -12.984375 C 13.941406 -13.992188 14.476562 -14.378906 15.53125 -14.140625 C 15.769531 -14.085938 15.988281 -14.003906 16.1875 -13.890625 C 16.382812 -13.785156 16.53125 -13.59375 16.625 -13.3125 C 17.445312 -11.519531 18.300781 -10.359375 19.1875 -9.828125 C 20.082031 -9.304688 20.894531 -9.109375 21.625 -9.234375 C 22.363281 -9.367188 22.894531 -9.535156 23.21875 -9.734375 C 23.289062 -9.753906 23.34375 -9.773438 23.375 -9.796875 Z M 23.375 -9.796875 "/></g></g></g><g fill="#ffffff" fill-opacity="1"><g transform="translate(202.270034, 161.156591)"><g><path d="M 13.765625 -9.796875 C 13.941406 -9.972656 14.035156 -9.753906 14.046875 -9.140625 C 14.054688 -8.523438 13.492188 -7.664062 12.359375 -6.5625 C 11.234375 -5.457031 10.070312 -4.9375 8.875 -5 C 8.601562 -5.019531 8.375 -5 8.1875 -4.9375 C 8.007812 -4.875 7.851562 -4.722656 7.71875 -4.484375 C 7.59375 -4.265625 7.4375 -4.066406 7.25 -3.890625 C 7.25 -3.890625 7.238281 -3.875 7.21875 -3.84375 C 6.476562 -3.0625 5.609375 -2.546875 4.609375 -2.296875 C 3.609375 -2.046875 2.660156 -2.125 1.765625 -2.53125 C 0.878906 -2.9375 0.238281 -3.707031 -0.15625 -4.84375 C -0.445312 -5.863281 -0.472656 -6.882812 -0.234375 -7.90625 C -0.0234375 -8.800781 0.300781 -9.640625 0.75 -10.421875 C 1.300781 -11.472656 2.015625 -12.21875 2.890625 -12.65625 C 3.765625 -13.09375 4.757812 -13.332031 5.875 -13.375 C 7.519531 -13.457031 8.5625 -12.679688 9 -11.046875 C 9.257812 -10.109375 9.320312 -9.15625 9.1875 -8.1875 C 9.15625 -7.96875 9.113281 -7.738281 9.0625 -7.5 C 9.019531 -7.34375 8.976562 -7.191406 8.9375 -7.046875 C 8.894531 -6.515625 9.125 -6.273438 9.625 -6.328125 C 11.007812 -6.566406 12.390625 -7.722656 13.765625 -9.796875 Z M 4.015625 -3.6875 C 4.859375 -4.082031 5.445312 -4.753906 5.78125 -5.703125 C 4.375 -6.597656 3.429688 -7.882812 2.953125 -9.5625 C 2.515625 -8.78125 2.242188 -7.863281 2.140625 -6.8125 C 2.046875 -5.757812 2.148438 -4.890625 2.453125 -4.203125 C 2.765625 -3.515625 3.285156 -3.34375 4.015625 -3.6875 Z M 6.4375 -7.5625 C 6.65625 -7.894531 6.785156 -8.304688 6.828125 -8.796875 C 6.867188 -9.285156 6.84375 -9.769531 6.75 -10.25 C 6.664062 -10.738281 6.539062 -11.117188 6.375 -11.390625 C 6.21875 -11.671875 6.050781 -11.753906 5.875 -11.640625 C 5.550781 -11.359375 5.367188 -10.945312 5.328125 -10.40625 C 5.296875 -9.875 5.378906 -9.335938 5.578125 -8.796875 C 5.773438 -8.253906 6.0625 -7.84375 6.4375 -7.5625 Z M 6.4375 -7.5625 "/></g></g></g><g fill="#a97c50" fill-opacity="1"><g transform="translate(32.806592, 230.330258)"><g><path d="M 2.445312 -58.398438 C 6.199219 -58.398438 7.992188 -57.828125 8.074219 -54.320312 L 8.074219 -5.300781 C 8.074219 -1.632812 6.363281 -1.058594 2.445312 -1.058594 L 2.445312 0 L 30.179688 0 C 50.570312 0 53.914062 -10.03125 53.914062 -17.210938 C 53.914062 -25.367188 47.550781 -30.421875 37.191406 -30.421875 L 37.191406 -30.75 C 44.859375 -30.832031 50.242188 -36.296875 50.242188 -44.695312 C 50.242188 -57.992188 37.761719 -59.460938 25.691406 -59.460938 L 2.445312 -59.460938 Z M 27.242188 -30.097656 C 36.703125 -30.097656 44.125 -27.648438 44.125 -17.371094 C 44.125 -6.035156 38.171875 -0.980469 25.855469 -0.980469 C 18.515625 -0.980469 17.128906 -1.46875 17.128906 -5.300781 L 17.128906 -30.097656 Z M 17.128906 -54.320312 C 17.128906 -58.074219 18.921875 -58.398438 27.324219 -58.398438 C 36.785156 -58.398438 41.269531 -53.585938 41.269531 -44.695312 C 41.269531 -33.441406 34.417969 -31.074219 25.773438 -31.074219 L 17.128906 -31.074219 Z M 17.128906 -54.320312 "/></g></g></g><g fill="#a97c50" fill-opacity="1"><g transform="translate(89.981957, 230.330258)"><g><path d="M 2.445312 -58.398438 C 6.363281 -58.398438 8.074219 -57.746094 8.074219 -53.996094 L 8.074219 -4.566406 C 7.828125 -1.058594 6.035156 -1.058594 2.445312 -1.058594 L 2.445312 0 L 46.570312 0 L 52.363281 -23.410156 L 51.304688 -23.410156 C 47.550781 -10.929688 42.003906 -1.058594 28.058594 -1.058594 C 19.738281 -1.058594 17.128906 -1.46875 17.128906 -5.382812 L 17.128906 -53.996094 C 17.128906 -57.746094 18.839844 -58.398438 22.757812 -58.398438 L 22.757812 -59.460938 L 2.445312 -59.460938 Z M 2.445312 -58.398438 "/></g></g></g><g fill="#a97c50" fill-opacity="1"><g transform="translate(144.384191, 230.330258)"><g><path d="M 4.078125 -29.851562 C 4.078125 -12.804688 17.128906 0.980469 33.277344 0.980469 C 49.425781 0.980469 62.722656 -12.804688 62.722656 -29.851562 C 62.722656 -46.816406 49.425781 -60.355469 33.277344 -60.355469 C 17.128906 -60.355469 4.078125 -46.816406 4.078125 -29.851562 Z M 32.460938 -59.214844 C 47.0625 -59.214844 52.933594 -44.125 52.933594 -28.953125 C 52.933594 -13.292969 47.144531 -0.164062 34.09375 -0.164062 C 19.902344 -0.164062 13.867188 -15.007812 13.867188 -30.75 C 13.867188 -45.839844 20.144531 -59.214844 32.460938 -59.214844 Z M 32.460938 -59.214844 "/></g></g></g><g fill="#a97c50" fill-opacity="1"><g transform="translate(201.308794, 230.330258)"><g><path d="M 4.078125 -29.851562 C 4.078125 -12.804688 17.128906 0.980469 33.277344 0.980469 C 49.425781 0.980469 62.722656 -12.804688 62.722656 -29.851562 C 62.722656 -46.816406 49.425781 -60.355469 33.277344 -60.355469 C 17.128906 -60.355469 4.078125 -46.816406 4.078125 -29.851562 Z M 32.460938 -59.214844 C 47.0625 -59.214844 52.933594 -44.125 52.933594 -28.953125 C 52.933594 -13.292969 47.144531 -0.164062 34.09375 -0.164062 C 19.902344 -0.164062 13.867188 -15.007812 13.867188 -30.75 C 13.867188 -45.839844 20.144531 -59.214844 32.460938 -59.214844 Z M 32.460938 -59.214844 "/></g></g></g><g fill="#a97c50" fill-opacity="1"><g transform="translate(268.108538, 230.330258)"><g><path d="M 2.039062 -58.398438 C 5.628906 -58.398438 7.421875 -58.074219 8.808594 -55.871094 L 8.808594 -5.546875 C 8.808594 -1.222656 6.933594 -1.058594 3.019531 -1.058594 L 3.019531 0 L 15.660156 0 L 15.660156 -1.058594 C 11.828125 -1.058594 9.949219 -1.222656 9.867188 -5.300781 L 9.867188 -53.75 C 9.949219 -53.585938 10.03125 -53.34375 10.113281 -53.179688 L 30.585938 0 L 31.726562 0 L 52.769531 -56.277344 L 52.769531 -5.546875 C 52.769531 -1.222656 50.894531 -1.058594 46.980469 -1.058594 L 46.980469 0 L 67.535156 0 L 67.535156 -1.058594 C 63.617188 -1.058594 61.742188 -1.222656 61.742188 -5.546875 L 61.742188 -54.238281 C 61.824219 -58.234375 63.699219 -58.398438 67.535156 -58.398438 L 67.535156 -59.460938 L 52.769531 -59.460938 L 35.316406 -12.722656 L 17.046875 -59.460938 L 2.039062 -59.460938 Z M 2.039062 -58.398438 "/></g></g></g></svg>